<svg xmlns="http://www.w3.org/2000/svg" viewBox="0 0 512 512" width="64" height="64">
  <defs>
    <linearGradient id="rocket-gradient" x1="0%" y1="0%" x2="100%" y2="100%">
      <stop offset="0%" stop-color="#00ffff" />
      <stop offset="50%" stop-color="#ff00cc" />
      <stop offset="100%" stop-color="#3b82f6" />
    </linearGradient>
  </defs>
  <path fill="url(#rocket-gradient)" d="M156.6 384.9L125.7 354c-8.5-8.5-11.5-20.8-7.7-32.2c3-8.9 7-20.5 11.8-33.8L24 288c-8.6 0-16.6-4.6-20.9-12.1s-4.2-16.7 .2-24.1l52.5-88.5c13-21.9 36.5-35.3 61.9-35.3l82.3 0c2.4-4 4.8-7.7 7.2-11.3C289.1-4.1 411.1-8.1 483.9 5.3c11.6 2.1 20.6 11.2 22.8 22.8c13.4 72.9 9.3 194.8-111.4 276.7c-3.5 2.4-7.3 4.8-11.3 7.2v82.3c0 25.4-13.4 49-35.3 61.9l-88.5 52.5c-7.4 4.4-16.6 4.5-24.1 .2s-12.1-12.2-12.1-20.9V380.8c-14.1 4.9-26.4 8.9-35.7 12.1c-11.2 3.9-23.6 .9-32.1-7.7l-30.5-30.6zm128.9-88c9.1-8.2 19.6-15.5 31.3-21.6l.2-.1V152c0-13.3-10.7-24-24-24H222.9c-12.3 0-23.5 7.3-28.5 18.5l-5.2 11.8c-8.3 19-16.1 37.2-22.7 53.9c-5.4 14-10 26.8-13.4 37.5c-1.7 5.3-3 9.7-4 13l57.4 57.4c3.3-1 7.7-2.3 13-4c10.7-3.4 23.5-8.1 37.5-13.4c16.7-6.6 34.9-14.4 53.9-22.7l11.8-5.2c11.2-5 18.5-16.1 18.5-28.5V200h-32c-5.9 0-11.6-2.2-15.9-6.1l-36.9-32.8c-18.2 13.1-33.8 27.9-47.1 40.9c-14.8 14.5-24.5 23.5-29 25.5c-1.5 .7-3.2 1-4.8 1c-5.4 0-10.2-3.9-10.8-9.4c-2.1-17.4 6.3-32.5 26.7-52.3zm167.4 67.7c10.8-11.1 21.3-22.9 31.1-35.7c-9.2 3.9-18.8 7.3-28.7 10.1c-1.8 5.7-3.8 11.3-6 16.9c1.2 3 2.5 5.9 3.6 8.6z"/>
</svg>
