<svg width="340" height="343" viewBox="0 0 340 343" fill="none" xmlns="http://www.w3.org/2000/svg" class="cosmic-shimmer">
<defs>
<style>
.cosmic-shimmer {
position: relative;
overflow: hidden;
transition: transform 0.3s ease;
}
.cosmic-shimmer:hover {
transform: scale(1.05) rotate(2deg);
}
.cosmic-background {
fill: url(#cosmicGradient);
}
@keyframes gradientShift {
0% { stop-color: #3b82f6; }
33% { stop-color: #a855f7; }
66% { stop-color: #6366f1; }
100% { stop-color: #3b82f6; }
}
.gradient-stop-1 {
animation: gradientShift 3s ease infinite;
}
.gradient-stop-2 {
animation: gradientShift 3s ease infinite 1s;
}
.gradient-stop-3 {
animation: gradientShift 3s ease infinite 2s;
}
@keyframes shimmer {
0% { transform: translateX(-100%); }
100% { transform: translateX(100%); }
}
.shimmer-overlay {
animation: shimmer 3s infinite;
}
</style>
<linearGradient id="cosmicGradient" x1="0%" y1="0%" x2="100%" y2="100%">
<stop offset="0%" class="gradient-stop-1" stop-color="#3b82f6"/>
<stop offset="50%" class="gradient-stop-2" stop-color="#a855f7"/>
<stop offset="100%" class="gradient-stop-3" stop-color="#6366f1"/>
</linearGradient>
<linearGradient id="shimmerGradient" x1="0%" y1="0%" x2="100%" y2="0%">
<stop offset="0%" stop-color="transparent"/>
<stop offset="50%" stop-color="rgba(255, 255, 255, 0.1)"/>
<stop offset="100%" stop-color="transparent"/>
</linearGradient>
</defs>
<rect width="340" height="340" fill="#6424D4"/>
<rect width="340" height="340" class="cosmic-background" opacity="0.7"/>
<rect width="340" height="340" fill="url(#shimmerGradient)" class="shimmer-overlay"/>
<path d="M131.749 52.2327L169.64 16.6657L163.77 184.772L123.555 155.7L131.749 52.2327Z" fill="white"/>
<path d="M208.188 52.225L169.795 16.6755L175.666 184.782L216.445 155.69L208.188 52.225Z" fill="white"/>
<path d="M127.028 52.4913L83 31.7003L122.393 156.446L127.028 52.4913Z" fill="white"/>
<path d="M212.972 52.4913L257 31.7003L217.607 156.446L212.972 52.4913Z" fill="white"/>
<path d="M55.8125 315.782L72.4375 241.907H74.4375L78.6875 261.282L66.5625 315.782H55.8125ZM75.8125 301.782L78.1875 291.157H91.5625L77.6875 228.407H88.5625L108.312 315.782H97.4375L94.3125 301.782H75.8125ZM116.562 315.782V228.282H127.438V305.032H163.562V315.782H116.562ZM170.312 291.657V228.282H181.312V291.657C181.312 297.157 184.188 301.282 189.938 304.032C192.021 305.032 193.771 305.532 195.188 305.532V316.407C190.354 316.407 185.521 314.699 180.688 311.282C173.854 306.366 170.396 299.824 170.312 291.657ZM201.438 316.407V305.532C204.188 305.532 207.021 304.407 209.938 302.157C213.438 299.407 215.229 295.907 215.312 291.657V228.282H226.188V291.657C226.188 300.991 222.021 308.032 213.688 312.782C209.438 315.199 205.354 316.407 201.438 316.407ZM233.688 315.782L254.062 270.532L235.188 228.282H245.812L259.438 257.157L273.062 228.282H283.688L264.812 270.532L285.188 315.782H274.062L259.438 284.407L244.812 315.782H233.688Z" fill="white"/>
</svg>
