<svg width="512" height="512" viewBox="0 0 512 512" fill="none" xmlns="http://www.w3.org/2000/svg">
<rect width="512" height="512" fill="#4765EB"/>
<path d="M212.913 113.693L255.595 73.6293L248.982 262.991L203.682 230.243L212.913 113.693Z" fill="white"/>
<path d="M299.017 113.685L255.769 73.6402L262.382 263.002L308.318 230.232L299.017 113.685Z" fill="white"/>
<path d="M207.595 113.984L158 90.5647L202.374 229.083L207.595 113.984Z" fill="white"/>
<path d="M304.405 113.984L354 90.5647L309.626 229.083L304.405 113.984Z" fill="white"/>
<path d="M118.163 334.438H120.339L130.451 369.51L115.731 422.502H90.131L118.163 334.438ZM146.963 406.886H125.587L130.963 387.174H141.203L126.099 334.438H149.523L177.555 422.502H151.443L146.963 406.886ZM186.07 334.438H211.67V422.502H186.07V334.438ZM217.046 401.894H244.438V422.502H217.046V401.894ZM291.16 423.526C282.2 423.526 275.288 422.8 270.424 421.35C265.56 419.899 261.976 417.552 259.672 414.31C257.539 411.323 256.216 407.526 255.704 402.918C255.192 398.31 254.936 391.44 254.936 382.31V334.438H280.536V387.43C280.536 390.587 280.621 393.616 280.792 396.518C280.963 398.822 281.347 400.486 281.944 401.51C282.541 402.534 283.565 403.174 285.016 403.43C286.296 403.771 288.344 403.942 291.16 403.942H294.104C294.787 403.942 295.555 403.856 296.408 403.686V423.398C295.811 423.483 294.957 423.526 293.848 423.526H291.16ZM301.784 334.438H327.384V382.31C327.384 390.672 327.213 396.987 326.872 401.254C326.531 405.52 325.592 409.104 324.056 412.006C322.349 415.334 319.747 417.894 316.248 419.686C312.749 421.478 307.928 422.63 301.784 423.142V334.438ZM336.527 334.438H365.583L421.519 422.502H392.335L336.527 334.438ZM383.375 352.358L393.103 334.438H421.135L396.815 373.606L383.375 352.358ZM360.591 382.566L373.903 403.686L364.047 422.502H336.015L360.591 382.566Z" fill="white"/>
</svg>
